<svg width="85" height="36" viewBox="0 0 85 36" fill="none" xmlns="http://www.w3.org/2000/svg">
<path d="M58.3721 29.3864V26.612L59.2799 26.4057C59.4863 26.3835 59.5307 26.3137 59.5307 26.0883V17.2127C59.5307 17.0318 59.4863 16.9619 59.2799 16.8953L58.3721 16.6699V13.9114H65.289V16.689L64.378 16.9175C64.1748 16.9842 64.1272 17.054 64.1272 17.2349V26.101C64.1272 26.3041 64.1748 26.3517 64.3558 26.4184L65.289 26.6692V29.3991L58.3721 29.3864Z" fill="#EAEAEA"/>
<path d="M45.7787 29.3864L41.9219 17.1778C41.9084 17.125 41.8794 17.0774 41.8387 17.0412C41.798 17.005 41.7473 16.9818 41.6933 16.9746L40.4902 16.7715V13.9558H48.2738V16.7715L47.3659 17.0445C47.2781 17.056 47.1975 17.0991 47.1391 17.1657C47.0807 17.2323 47.0485 17.3178 47.0485 17.4064C47.064 17.6606 47.1098 17.9121 47.185 18.1555L48.842 24.6915H48.9531L50.6038 18.165C50.6765 17.921 50.7222 17.6698 50.7403 17.4159C50.735 17.3253 50.6981 17.2395 50.636 17.1734C50.574 17.1072 50.4907 17.065 50.4006 17.054L49.515 16.781V13.9653H57.0954V16.7588L55.8479 17.0064C55.7915 17.0177 55.7397 17.0455 55.6991 17.0862C55.6584 17.1268 55.6307 17.1786 55.6193 17.2349L51.8767 29.396L45.7787 29.3864Z" fill="#EAEAEA"/>
<path d="M66.834 28.2723C66.849 26.8645 66.9487 25.4589 67.1324 24.0631H70.8559L71.221 25.8375C71.698 25.9977 72.1971 26.0824 72.7002 26.0883C73.5637 26.0883 74.1319 25.701 74.1319 25.0852C74.1319 24.3138 73.1542 24.0186 71.9923 23.6758C69.6719 22.9711 66.8975 22.06 66.8975 18.4635C66.8975 14.8669 69.2624 13.686 72.8367 13.686C75.1128 13.686 76.592 14.2765 78.1824 15.0288C78.2052 16.3601 78.1224 17.6912 77.9348 19.0095H74.2081L74.0271 17.4413C73.6664 17.2895 73.2789 17.2118 72.8875 17.2128C72.0463 17.2128 71.5003 17.4159 71.5003 18.0762C71.5003 18.8507 72.5479 19.3078 73.6843 19.6919C75.9063 20.4189 78.7379 21.422 78.7379 24.7233C78.7379 28.0247 76.6428 29.6373 72.6844 29.6373C70.6568 29.6246 68.6578 29.1582 66.834 28.2723V28.2723Z" fill="#EAEAEA"/>
<path d="M15.2542 13.9558V16.7651L16.3685 17.0826C16.8319 17.2064 16.8256 17.4444 16.5843 18.165L14.4257 24.7074H14.2702L12.6036 18.165C12.4164 17.4667 12.4195 17.1746 12.8195 17.0826L14.0035 16.7651V13.9558H6.15332V16.7651L7.42307 17.0127C7.54687 17.0445 7.57544 17.1048 7.60718 17.2286L11.4164 29.3864H16.8922L18.7968 22.9266L20.7015 29.3769H26.1931L30.0024 17.2191C30.0169 17.1659 30.0451 17.1175 30.0841 17.0785C30.123 17.0396 30.1714 17.0114 30.2246 16.9969L31.4531 16.7556V13.9463H23.6092V16.7556L24.7932 17.073C25.1964 17.1651 25.1964 17.4571 25.0091 18.1555L23.3425 24.6979H23.1902L21.0189 18.165C20.7808 17.4444 20.7713 17.2127 21.2348 17.0826L22.349 16.7651V13.9558H15.2542Z" fill="#EAEAEA"/>
<path d="M35.0435 22.4155H37.0973V21.8314C37.0973 21.1965 36.7354 20.8601 36.0815 20.8601C35.4276 20.8601 35.0435 21.1997 35.0435 21.8314V22.4155ZM30.666 25.0788V22.1012C30.666 19.3713 32.7865 17.5651 35.9926 17.5651C39.1987 17.5651 41.316 19.3713 41.316 22.1012V24.6407H35.0435V25.2502C35.0435 25.9041 35.8117 26.3327 36.6307 26.3327C37.4496 26.3327 38.2559 25.9708 38.3893 25.4089H41.3002V27.631C40.1288 29.0087 38.3448 29.6182 36.4942 29.6182C33.0151 29.615 30.666 27.8088 30.666 25.0788V25.0788Z" fill="#EAEAEA"/>
<path d="M61.9306 12.5337C63.2805 12.5337 64.3749 11.4393 64.3749 10.0894C64.3749 8.73948 63.2805 7.64514 61.9306 7.64514C60.5807 7.64514 59.4863 8.73948 59.4863 10.0894C59.4863 11.4393 60.5807 12.5337 61.9306 12.5337Z" fill="#EAEAEA"/>
</svg>
